<svg width="256" height="256" viewBox="0 0 256 256" fill="none" xmlns="http://www.w3.org/2000/svg">
<rect width="256" height="256" rx="128" fill="#027EDB"/>
<path d="M162.516 158V68.4H195.156C199.892 68.4 204.158 69.3813 207.956 71.344C211.796 73.264 214.825 76.0373 217.044 79.664C219.305 83.248 220.436 87.4933 220.436 92.4C220.436 94.576 220.116 96.7733 219.476 98.992C218.836 101.211 217.854 103.216 216.532 105.008C215.209 106.757 213.502 108.059 211.412 108.912C214.185 109.595 216.446 110.832 218.196 112.624C219.945 114.416 221.31 116.528 222.292 118.96C223.273 121.349 223.934 123.803 224.276 126.32C224.66 128.795 224.852 131.099 224.852 133.232C224.852 137.968 223.678 142.192 221.332 145.904C218.985 149.616 215.828 152.56 211.86 154.736C207.934 156.912 203.582 158 198.804 158H162.516ZM178.132 144.624H197.204C199.764 144.624 202.068 144.005 204.116 142.768C206.164 141.531 207.806 139.824 209.044 137.648C210.281 135.472 210.9 132.997 210.9 130.224C210.9 127.835 210.281 125.573 209.044 123.44C207.806 121.307 206.164 119.579 204.116 118.256C202.068 116.933 199.764 116.272 197.204 116.272H178.132V144.624ZM178.132 103.088H193.364C196.521 103.088 199.209 102.107 201.428 100.144C203.689 98.1813 204.82 95.5787 204.82 92.336C204.82 88.88 203.689 86.2773 201.428 84.528C199.209 82.736 196.521 81.84 193.364 81.84H178.132V103.088Z" fill="#F1F1F1"/>
<path d="M162.516 158H161.516V159H162.516V158ZM162.516 68.4V67.4H161.516V68.4H162.516ZM207.956 71.344L207.496 72.2324L207.508 72.2384L207.956 71.344ZM217.044 79.664L216.19 80.1859L216.198 80.1976L217.044 79.664ZM219.476 98.992L218.515 98.7148L219.476 98.992ZM216.532 105.008L217.329 105.611L217.336 105.602L216.532 105.008ZM211.412 108.912L211.034 107.986L208.187 109.148L211.172 109.883L211.412 108.912ZM218.196 112.624L218.911 111.925L218.196 112.624ZM222.292 118.96L221.364 119.334L221.366 119.34L222.292 118.96ZM224.276 126.32L223.285 126.454L223.286 126.464L223.287 126.473L224.276 126.32ZM221.332 145.904L220.486 145.37L221.332 145.904ZM211.86 154.736L211.379 153.859L211.375 153.861L211.86 154.736ZM178.132 144.624H177.132V145.624H178.132V144.624ZM204.116 142.768L204.633 143.624L204.116 142.768ZM209.044 137.648L209.913 138.142L209.044 137.648ZM209.044 123.44L209.909 122.938L209.044 123.44ZM204.116 118.256L204.658 117.416L204.116 118.256ZM178.132 116.272V115.272H177.132V116.272H178.132ZM178.132 103.088H177.132V104.088H178.132V103.088ZM201.428 100.144L200.772 99.3887L200.765 99.395L201.428 100.144ZM201.428 84.528L200.799 85.3059L200.807 85.3125L200.816 85.319L201.428 84.528ZM178.132 81.84V80.84H177.132V81.84H178.132ZM163.516 158V68.4H161.516V158H163.516ZM162.516 69.4H195.156V67.4H162.516V69.4ZM195.156 69.4C199.749 69.4 203.856 70.3507 207.496 72.2324L208.415 70.4556C204.461 68.412 200.034 67.4 195.156 67.4V69.4ZM207.508 72.2384C211.183 74.0756 214.071 76.7206 216.19 80.1859L217.897 79.1421C215.579 75.3541 212.408 72.4524 208.403 70.4496L207.508 72.2384ZM216.198 80.1976C218.343 83.598 219.436 87.6518 219.436 92.4H221.436C221.436 87.3349 220.266 82.898 217.889 79.1304L216.198 80.1976ZM219.436 92.4C219.436 94.4767 219.13 96.5808 218.515 98.7148L220.436 99.2692C221.101 96.9659 221.436 94.6753 221.436 92.4H219.436ZM218.515 98.7148C217.906 100.824 216.977 102.721 215.727 104.414L217.336 105.602C218.732 103.711 219.765 101.598 220.436 99.2692L218.515 98.7148ZM215.734 104.405C214.523 106.006 212.963 107.199 211.034 107.986L211.789 109.838C214.041 108.919 215.895 107.508 217.329 105.611L215.734 104.405ZM211.172 109.883C213.791 110.527 215.878 111.682 217.48 113.323L218.911 111.925C217.014 109.982 214.579 108.662 211.651 107.941L211.172 109.883ZM217.48 113.323C219.134 115.017 220.429 117.017 221.364 119.334L223.219 118.586C222.191 116.039 220.756 113.815 218.911 111.925L217.48 113.323ZM221.366 119.34C222.316 121.652 222.955 124.023 223.285 126.454L225.266 126.186C224.913 123.583 224.23 121.047 223.217 118.58L221.366 119.34ZM223.287 126.473C223.665 128.906 223.852 131.158 223.852 133.232H225.852C225.852 131.039 225.654 128.684 225.264 126.167L223.287 126.473ZM223.852 133.232C223.852 137.794 222.724 141.83 220.486 145.37L222.177 146.438C224.632 142.554 225.852 138.142 225.852 133.232H223.852ZM220.486 145.37C218.233 148.934 215.203 151.762 211.379 153.859L212.34 155.613C216.452 153.358 219.737 150.298 222.177 146.438L220.486 145.37ZM211.375 153.861C207.607 155.95 203.424 157 198.804 157V159C203.74 159 208.261 157.874 212.344 155.611L211.375 153.861ZM198.804 157H162.516V159H198.804V157ZM178.132 145.624H197.204V143.624H178.132V145.624ZM197.204 145.624C199.933 145.624 202.418 144.962 204.633 143.624L203.598 141.912C201.717 143.049 199.594 143.624 197.204 143.624V145.624ZM204.633 143.624C206.834 142.294 208.595 140.46 209.913 138.142L208.174 137.154C207.017 139.188 205.493 140.767 203.598 141.912L204.633 143.624ZM209.913 138.142C211.245 135.8 211.9 133.151 211.9 130.224H209.9C209.9 132.843 209.317 135.144 208.174 137.154L209.913 138.142ZM211.9 130.224C211.9 127.653 211.231 125.219 209.909 122.938L208.178 123.942C209.33 125.928 209.9 128.017 209.9 130.224H211.9ZM209.909 122.938C208.593 120.67 206.84 118.825 204.658 117.416L203.573 119.096C205.487 120.332 207.019 121.943 208.178 123.942L209.909 122.938ZM204.658 117.416C202.44 115.984 199.946 115.272 197.204 115.272V117.272C199.581 117.272 201.695 117.883 203.573 119.096L204.658 117.416ZM197.204 115.272H178.132V117.272H197.204V115.272ZM177.132 116.272V144.624H179.132V116.272H177.132ZM178.132 104.088H193.364V102.088H178.132V104.088ZM193.364 104.088C196.747 104.088 199.676 103.029 202.09 100.893L200.765 99.395C198.742 101.185 196.294 102.088 193.364 102.088V104.088ZM202.083 100.899C204.583 98.7295 205.82 95.8413 205.82 92.336H203.82C203.82 95.3161 202.795 97.6331 200.772 99.3888L202.083 100.899ZM205.82 92.336C205.82 88.6426 204.597 85.7159 202.039 83.737L200.816 85.319C202.78 86.8388 203.82 89.1174 203.82 92.336H205.82ZM202.056 83.7501C199.64 81.7988 196.723 80.84 193.364 80.84V82.84C196.318 82.84 198.778 83.6732 200.799 85.3059L202.056 83.7501ZM193.364 80.84H178.132V82.84H193.364V80.84ZM177.132 81.84V103.088H179.132V81.84H177.132Z" fill="#459CDE"/>
<path d="M69.7272 159.664C63.6686 159.664 57.9726 158.469 52.6393 156.08C47.3059 153.648 42.6126 150.299 38.5592 146.032C34.5486 141.765 31.3912 136.837 29.0872 131.248C26.8259 125.616 25.6952 119.6 25.6952 113.2C25.6952 106.757 26.8259 100.741 29.0872 95.152C31.3912 89.52 34.5486 84.592 38.5592 80.368C42.6126 76.1013 47.3059 72.7733 52.6393 70.384C57.9726 67.952 63.6686 66.736 69.7272 66.736C76.9806 66.736 83.6579 68.4213 89.7593 71.792C95.8606 75.12 100.917 79.5787 104.927 85.168L90.9753 92.656C88.4579 89.5413 85.3219 87.0453 81.5673 85.168C77.8553 83.2907 73.9086 82.352 69.7272 82.352C65.8019 82.352 62.1113 83.1627 58.6553 84.784C55.1992 86.3627 52.1699 88.5813 49.5672 91.44C46.9646 94.256 44.9379 97.5413 43.4872 101.296C42.0366 105.008 41.3112 108.976 41.3112 113.2C41.3112 117.467 42.0366 121.456 43.4872 125.168C44.9806 128.88 47.0286 132.165 49.6313 135.024C52.2339 137.84 55.2419 140.059 58.6553 141.68C62.1113 143.259 65.8019 144.048 69.7272 144.048C73.9939 144.048 77.9619 143.109 81.6313 141.232C85.3433 139.312 88.4579 136.795 90.9753 133.68L104.927 141.232C100.917 146.779 95.8606 151.237 89.7593 154.608C83.6579 157.979 76.9806 159.664 69.7272 159.664Z" fill="#F1F1F1"/>
<path d="M52.6393 156.08L52.2243 156.99L52.2304 156.993L52.6393 156.08ZM38.5592 146.032L37.8306 146.717L37.8342 146.721L38.5592 146.032ZM29.0872 131.248L28.1592 131.621L28.1627 131.629L29.0872 131.248ZM29.0872 95.152L28.1617 94.7734L28.1602 94.7769L29.0872 95.152ZM38.5592 80.368L37.8342 79.6792L37.8341 79.6794L38.5592 80.368ZM52.6393 70.384L53.0481 71.2966L53.0541 71.2939L52.6393 70.384ZM89.7593 71.792L89.2757 72.6673L89.2804 72.6699L89.7593 71.792ZM104.927 85.168L105.4 86.0491L106.404 85.5105L105.74 84.585L104.927 85.168ZM90.9753 92.656L90.1975 93.2846L90.7182 93.9289L91.4481 93.5371L90.9753 92.656ZM81.5673 85.168L81.1159 86.0604L81.12 86.0624L81.5673 85.168ZM58.6553 84.784L59.0708 85.6936L59.08 85.6893L58.6553 84.784ZM49.5672 91.44L50.3016 92.1188L50.3067 92.1132L49.5672 91.44ZM43.4873 101.296L44.4187 101.66L44.42 101.656L43.4873 101.296ZM43.4873 125.168L42.5558 125.532L42.5595 125.541L43.4873 125.168ZM49.6312 135.024L48.8918 135.697L48.8969 135.703L49.6312 135.024ZM58.6553 141.68L58.2262 142.583L58.233 142.586L58.2398 142.59L58.6553 141.68ZM81.6313 141.232L82.0867 142.122L82.0907 142.12L81.6313 141.232ZM90.9753 133.68L91.4513 132.801L90.7201 132.405L90.1975 133.051L90.9753 133.68ZM104.927 141.232L105.738 141.818L106.405 140.895L105.403 140.353L104.927 141.232ZM89.7593 154.608L90.2428 155.483L89.7593 154.608ZM69.7272 158.664C63.8042 158.664 58.2481 157.497 53.0481 155.167L52.2304 156.993C57.6971 159.442 63.533 160.664 69.7272 160.664V158.664ZM53.0541 155.17C47.8379 152.792 43.2497 149.517 39.2843 145.343L37.8342 146.721C41.9755 151.08 46.774 154.504 52.2244 156.99L53.0541 155.17ZM39.2879 145.347C35.3631 141.172 32.271 136.348 30.0118 130.867L28.1627 131.629C30.5115 137.327 33.734 142.359 37.8306 146.717L39.2879 145.347ZM30.0152 130.875C27.804 125.368 26.6952 119.479 26.6952 113.2H24.6952C24.6952 119.721 25.8478 125.864 28.1593 131.621L30.0152 130.875ZM26.6952 113.2C26.6952 106.877 27.8044 100.989 30.0143 95.527L28.1602 94.7769C25.8475 100.493 24.6952 106.638 24.6952 113.2H26.6952ZM30.0128 95.5306C32.2719 90.0083 35.363 85.1866 39.2844 81.0566L37.8341 79.6794C33.7342 83.9974 30.5106 89.0317 28.1617 94.7734L30.0128 95.5306ZM39.2843 81.0567C43.2484 76.8839 47.8346 73.6323 53.0481 71.2966L52.2304 69.4714C46.7772 71.9144 41.9767 75.3187 37.8342 79.6792L39.2843 81.0567ZM53.0541 71.2939C58.2528 68.9233 63.8068 67.736 69.7272 67.736V65.736C63.5304 65.736 57.6924 66.9807 52.2244 69.4741L53.0541 71.2939ZM69.7272 67.736C76.8186 67.736 83.3285 69.3818 89.2757 72.6673L90.2428 70.9167C83.9873 67.4608 77.1426 65.736 69.7272 65.736V67.736ZM89.2804 72.6699C95.2512 75.9267 100.193 80.2851 104.115 85.751L105.74 84.585C101.641 78.8723 96.47 74.3133 90.2381 70.9141L89.2804 72.6699ZM104.454 84.2869L90.5024 91.7749L91.4481 93.5371L105.4 86.0491L104.454 84.2869ZM91.753 92.0274C89.1414 88.7962 85.8907 86.2117 82.0145 84.2736L81.12 86.0624C84.7531 87.879 87.7744 90.2865 90.1975 93.2846L91.753 92.0274ZM82.0186 84.2756C78.1659 82.3272 74.0645 81.352 69.7272 81.352V83.352C73.7526 83.352 77.5446 84.2542 81.1159 86.0604L82.0186 84.2756ZM69.7272 81.352C65.6594 81.352 61.8233 82.1932 58.2305 83.8787L59.08 85.6893C62.3993 84.1321 65.9445 83.352 69.7272 83.352V81.352ZM58.2398 83.8744C54.6587 85.5102 51.5198 87.81 48.8278 90.7668L50.3067 92.1132C52.8201 89.3526 55.7398 87.2152 59.0707 85.6936L58.2398 83.8744ZM48.8329 90.7613C46.1404 93.6745 44.0483 97.0692 42.5545 100.936L44.42 101.656C45.8275 98.0135 47.7888 94.8375 50.3016 92.1187L48.8329 90.7613ZM42.5558 100.932C41.0572 104.767 40.3112 108.859 40.3112 113.2H42.3112C42.3112 109.093 43.016 105.249 44.4187 101.66L42.5558 100.932ZM40.3112 113.2C40.3112 117.582 41.0567 121.696 42.5558 125.532L44.4187 124.804C43.0164 121.216 42.3112 117.351 42.3112 113.2H40.3112ZM42.5595 125.541C44.0957 129.36 46.2062 132.747 48.8918 135.697L50.3707 134.351C47.8509 131.583 45.8655 128.4 44.415 124.795L42.5595 125.541ZM48.8969 135.703C51.5848 138.611 54.696 140.906 58.2262 142.583L59.0843 140.777C55.7879 139.211 52.8831 137.069 50.3656 134.345L48.8969 135.703ZM58.2398 142.59C61.8305 144.23 65.6634 145.048 69.7272 145.048V143.048C65.9404 143.048 62.392 142.288 59.0707 140.77L58.2398 142.59ZM69.7272 145.048C74.1465 145.048 78.2714 144.074 82.0867 142.122L81.1758 140.342C77.6525 142.144 73.8413 143.048 69.7272 143.048V145.048ZM82.0907 142.12C85.9201 140.139 89.1449 137.536 91.753 134.309L90.1975 133.051C87.771 136.054 84.7664 138.485 81.1718 140.344L82.0907 142.12ZM90.4992 134.559L104.451 142.111L105.403 140.353L91.4513 132.801L90.4992 134.559ZM104.117 140.646C100.194 146.071 95.2506 150.432 89.2757 153.733L90.2428 155.483C96.4706 152.043 101.639 147.486 105.738 141.818L104.117 140.646ZM89.2757 153.733C83.3285 157.018 76.8186 158.664 69.7272 158.664V160.664C77.1426 160.664 83.9873 158.939 90.2428 155.483L89.2757 153.733Z" fill="#459CDE"/>
<path d="M127.944 159.664C122.994 159.664 118.237 158.896 113.672 157.36C109.149 155.781 105.181 153.541 101.768 150.64C98.3544 147.696 95.9011 144.176 94.4078 140.08L109.064 134.704C109.661 136.411 110.877 137.968 112.712 139.376C114.546 140.784 116.786 141.915 119.432 142.768C122.077 143.621 124.914 144.048 127.944 144.048C131.058 144.048 133.96 143.579 136.648 142.64C139.378 141.659 141.576 140.315 143.24 138.608C144.904 136.859 145.736 134.832 145.736 132.528C145.736 130.181 144.861 128.261 143.112 126.768C141.362 125.232 139.122 124.016 136.392 123.12C133.661 122.224 130.845 121.541 127.944 121.072C121.586 120.091 115.89 118.576 110.856 116.528C105.821 114.48 101.832 111.643 98.8878 108.016C95.9864 104.389 94.5358 99.696 94.5358 93.936C94.5358 88.5173 96.0931 83.7813 99.2078 79.728C102.322 75.6747 106.418 72.5173 111.496 70.256C116.573 67.9947 122.056 66.864 127.944 66.864C132.85 66.864 137.586 67.632 142.152 69.168C146.717 70.704 150.706 72.944 154.12 75.888C157.576 78.832 160.05 82.3733 161.544 86.512L146.824 91.824C146.226 90.1173 145.01 88.56 143.176 87.152C141.341 85.744 139.101 84.6347 136.456 83.824C133.81 82.9707 130.973 82.544 127.944 82.544C124.914 82.5013 122.034 82.992 119.304 84.016C116.616 84.9973 114.418 86.3413 112.712 88.048C111.005 89.7547 110.152 91.7173 110.152 93.936C110.152 96.7947 110.941 98.9493 112.52 100.4C114.141 101.851 116.296 102.917 118.984 103.6C121.672 104.24 124.658 104.837 127.944 105.392C133.917 106.331 139.442 107.909 144.52 110.128C149.597 112.347 153.672 115.312 156.744 119.024C159.816 122.693 161.352 127.195 161.352 132.528C161.352 137.947 159.816 142.704 156.744 146.8C153.672 150.853 149.597 154.011 144.52 156.272C139.442 158.533 133.917 159.664 127.944 159.664Z" fill="#F1F1F1"/>
<path d="M113.672 157.36L113.342 158.304L113.353 158.308L113.672 157.36ZM101.768 150.64L101.115 151.397L101.12 151.402L101.768 150.64ZM94.4078 140.08L94.0634 139.141L93.1264 139.485L93.4683 140.423L94.4078 140.08ZM109.064 134.704L110.008 134.374L109.672 133.416L108.719 133.765L109.064 134.704ZM112.712 139.376L112.103 140.169L112.712 139.376ZM119.432 142.768L119.125 143.72L119.432 142.768ZM136.648 142.64L136.977 143.584L136.986 143.581L136.648 142.64ZM143.24 138.608L143.956 139.306L143.964 139.297L143.24 138.608ZM143.112 126.768L142.452 127.52L142.463 127.529L143.112 126.768ZM136.392 123.12L136.08 124.07L136.392 123.12ZM127.944 121.072L128.103 120.085L128.096 120.084L127.944 121.072ZM110.856 116.528L110.479 117.454L110.856 116.528ZM98.8878 108.016L98.1069 108.641L98.1114 108.646L98.8878 108.016ZM99.2078 79.728L100.001 80.3373L99.2078 79.728ZM111.496 70.256L111.089 69.3425L111.496 70.256ZM142.152 69.168L141.833 70.1158L142.152 69.168ZM154.12 75.888L153.467 76.6453L153.471 76.6492L154.12 75.888ZM161.544 86.512L161.883 87.4526L162.824 87.1132L162.484 86.1726L161.544 86.512ZM146.824 91.824L145.88 92.1543L146.213 93.1074L147.163 92.7646L146.824 91.824ZM143.176 87.152L142.567 87.9453L143.176 87.152ZM136.456 83.824L136.149 84.7757L136.156 84.778L136.163 84.7801L136.456 83.824ZM127.944 82.544L127.93 83.544H127.944V82.544ZM119.304 84.016L119.647 84.9554L119.655 84.9523L119.304 84.016ZM112.712 88.048L112.005 87.3409L112.712 88.048ZM112.52 100.4L111.843 101.136L111.853 101.145L112.52 100.4ZM118.984 103.6L118.738 104.569L118.745 104.571L118.752 104.573L118.984 103.6ZM127.944 105.392L127.777 106.378L127.789 106.38L127.944 105.392ZM144.52 110.128L144.119 111.044L144.52 110.128ZM156.744 119.024L155.973 119.662L155.977 119.666L156.744 119.024ZM156.744 146.8L157.541 147.404L157.544 147.4L156.744 146.8ZM144.52 156.272L144.113 155.359L144.52 156.272ZM127.944 158.664C123.1 158.664 118.45 157.913 113.991 156.412L113.353 158.308C118.024 159.879 122.889 160.664 127.944 160.664V158.664ZM114.001 156.416C109.587 154.875 105.729 152.694 102.415 149.878L101.12 151.402C104.634 154.388 108.711 156.688 113.342 158.304L114.001 156.416ZM102.421 149.883C99.1323 147.046 96.7801 143.667 95.3473 139.737L93.4683 140.423C95.0221 144.685 97.5766 148.346 101.115 151.397L102.421 149.883ZM94.7521 141.019L109.408 135.643L108.719 133.765L94.0634 139.141L94.7521 141.019ZM108.12 135.034C108.797 136.97 110.157 138.676 112.103 140.169L113.321 138.583C111.598 137.26 110.525 135.852 110.008 134.374L108.12 135.034ZM112.103 140.169C114.045 141.659 116.392 142.838 119.125 143.72L119.739 141.816C117.181 140.991 115.048 139.909 113.321 138.583L112.103 140.169ZM119.125 143.72C121.878 144.608 124.82 145.048 127.944 145.048V143.048C125.009 143.048 122.276 142.635 119.739 141.816L119.125 143.72ZM127.944 145.048C131.16 145.048 134.174 144.563 136.977 143.584L136.318 141.696C133.746 142.594 130.957 143.048 127.944 143.048V145.048ZM136.986 143.581C139.829 142.559 142.165 141.142 143.956 139.306L142.524 137.91C140.986 139.487 138.928 140.758 136.31 141.699L136.986 143.581ZM143.964 139.297C145.796 137.372 146.736 135.102 146.736 132.528H144.736C144.736 134.562 144.012 136.346 142.515 137.919L143.964 139.297ZM146.736 132.528C146.736 129.896 145.738 127.695 143.761 126.007L142.463 127.529C143.984 128.828 144.736 130.467 144.736 132.528H146.736ZM143.772 126.017C141.9 124.373 139.533 123.098 136.704 122.17L136.08 124.07C138.712 124.934 140.825 126.091 142.452 127.519L143.772 126.017ZM136.704 122.17C133.922 121.257 131.055 120.562 128.103 120.085L127.784 122.059C130.635 122.52 133.4 123.191 136.08 124.07L136.704 122.17ZM128.096 120.084C121.802 119.112 116.183 117.616 111.233 115.602L110.479 117.454C115.597 119.536 121.371 121.069 127.791 122.06L128.096 120.084ZM111.233 115.602C106.328 113.607 102.486 110.862 99.6642 107.386L98.1114 108.646C101.178 112.424 105.314 115.353 110.479 117.454L111.233 115.602ZM99.6686 107.391C96.9406 103.981 95.5358 99.5249 95.5358 93.936H93.5358C93.5358 99.8671 95.0323 104.797 98.1069 108.641L99.6686 107.391ZM95.5358 93.936C95.5358 88.7236 97.0287 84.205 100.001 80.3373L98.4148 79.1187C95.1575 83.3577 93.5358 88.3111 93.5358 93.936H95.5358ZM100.001 80.3373C103.005 76.4272 106.964 73.3692 111.903 71.1695L111.089 69.3425C105.873 71.6655 101.64 74.9221 98.4148 79.1187L100.001 80.3373ZM111.903 71.1695C116.844 68.9685 122.187 67.864 127.944 67.864V65.864C121.924 65.864 116.302 67.0208 111.089 69.3425L111.903 71.1695ZM127.944 67.864C132.744 67.864 137.372 68.615 141.833 70.1158L142.471 68.2202C137.801 66.649 132.957 65.864 127.944 65.864V67.864ZM141.833 70.1158C146.284 71.6134 150.158 73.7915 153.467 76.6452L154.773 75.1307C151.255 72.0965 147.15 69.7946 142.471 68.2202L141.833 70.1158ZM153.471 76.6492C156.799 79.4842 159.171 82.8817 160.603 86.8514L162.484 86.1726C160.93 81.8649 158.352 78.1798 154.768 75.1267L153.471 76.6492ZM161.204 85.5714L146.484 90.8834L147.163 92.7646L161.883 87.4526L161.204 85.5714ZM147.768 91.4936C147.09 89.5584 145.731 87.8523 143.785 86.3587L142.567 87.9453C144.29 89.2677 145.363 90.6763 145.88 92.1543L147.768 91.4936ZM143.785 86.3587C141.839 84.8653 139.486 83.7068 136.749 82.8679L136.163 84.7801C138.716 85.5625 140.844 86.6227 142.567 87.9453L143.785 86.3587ZM136.763 82.8723C134.01 81.9842 131.068 81.544 127.944 81.544V83.544C130.878 83.544 133.611 83.9571 136.149 84.7757L136.763 82.8723ZM127.958 81.5441C124.809 81.4997 121.805 82.0102 118.953 83.0797L119.655 84.9523C122.264 83.9738 125.02 83.5029 127.93 83.5439L127.958 81.5441ZM118.961 83.0766C116.161 84.0988 113.832 85.5138 112.005 87.3409L113.419 88.7551C115.005 87.1688 117.07 85.8959 119.647 84.9554L118.961 83.0766ZM112.005 87.3409C110.129 89.2169 109.152 91.4275 109.152 93.936H111.152C111.152 92.0072 111.882 90.2924 113.419 88.7551L112.005 87.3409ZM109.152 93.936C109.152 96.9768 109.996 99.439 111.843 101.136L113.196 99.6637C111.886 98.4597 111.152 96.6125 111.152 93.936H109.152ZM111.853 101.145C113.623 102.729 115.935 103.858 118.738 104.569L119.23 102.631C116.656 101.977 114.659 100.972 113.187 99.6548L111.853 101.145ZM118.752 104.573C121.466 105.219 124.474 105.82 127.777 106.378L128.11 104.406C124.843 103.854 121.878 103.261 119.215 102.627L118.752 104.573ZM127.789 106.38C133.685 107.306 139.127 108.863 144.119 111.044L144.92 109.212C139.758 106.956 134.149 105.355 128.099 104.404L127.789 106.38ZM144.119 111.044C149.075 113.21 153.015 116.087 155.973 119.662L157.514 118.386C154.328 114.537 150.119 111.484 144.92 109.212L144.119 111.044ZM155.977 119.666C158.881 123.134 160.352 127.401 160.352 132.528H162.352C162.352 126.989 160.751 122.252 157.511 118.382L155.977 119.666ZM160.352 132.528C160.352 137.744 158.878 142.288 155.944 146.2L157.544 147.4C160.753 143.12 162.352 138.15 162.352 132.528H160.352ZM155.947 146.196C152.986 150.103 149.051 153.159 144.113 155.359L144.927 157.185C150.143 154.862 154.358 151.604 157.541 147.404L155.947 146.196ZM144.113 155.359C139.173 157.559 133.788 158.664 127.944 158.664V160.664C134.047 160.664 139.712 159.508 144.927 157.185L144.113 155.359Z" fill="#459CDE"/>
<path d="M18.678 177.26C17.7314 177.26 16.8414 177.073 16.008 176.7C15.1747 176.32 14.4414 175.797 13.808 175.13C13.1814 174.463 12.688 173.693 12.328 172.82C11.9747 171.94 11.798 171 11.798 170C11.798 168.993 11.9747 168.053 12.328 167.18C12.688 166.3 13.1814 165.53 13.808 164.87C14.4414 164.203 15.1747 163.683 16.008 163.31C16.8414 162.93 17.7314 162.74 18.678 162.74C19.8114 162.74 20.8547 163.003 21.808 163.53C22.7614 164.05 23.5514 164.747 24.178 165.62L21.998 166.79C21.6047 166.303 21.1147 165.913 20.528 165.62C19.948 165.327 19.3314 165.18 18.678 165.18C18.0647 165.18 17.488 165.307 16.948 165.56C16.408 165.807 15.9347 166.153 15.528 166.6C15.1214 167.04 14.8047 167.553 14.578 168.14C14.3514 168.72 14.238 169.34 14.238 170C14.238 170.667 14.3514 171.29 14.578 171.87C14.8114 172.45 15.1314 172.963 15.538 173.41C15.9447 173.85 16.4147 174.197 16.948 174.45C17.488 174.697 18.0647 174.82 18.678 174.82C19.3447 174.82 19.9647 174.673 20.538 174.38C21.118 174.08 21.6047 173.687 21.998 173.2L24.178 174.38C23.5514 175.247 22.7614 175.943 21.808 176.47C20.8547 176.997 19.8114 177.26 18.678 177.26ZM25.5871 173.3V167H28.0271V172.66C28.0271 173.053 28.1238 173.413 28.3171 173.74C28.5104 174.06 28.7671 174.317 29.0871 174.51C29.4138 174.697 29.7704 174.79 30.1571 174.79C30.5571 174.79 30.9171 174.697 31.2371 174.51C31.5571 174.317 31.8138 174.06 32.0071 173.74C32.2004 173.413 32.2971 173.053 32.2971 172.66V167H34.7371L34.7471 177H32.3071L32.2971 176.09C31.9504 176.45 31.5404 176.737 31.0671 176.95C30.5938 177.157 30.0871 177.26 29.5471 177.26C28.8204 177.26 28.1571 177.083 27.5571 176.73C26.9571 176.37 26.4771 175.893 26.1171 175.3C25.7638 174.7 25.5871 174.033 25.5871 173.3ZM39.6988 177.18C39.1788 177.147 38.6755 177.043 38.1888 176.87C37.7088 176.69 37.2822 176.447 36.9088 176.14C36.5355 175.833 36.2488 175.467 36.0488 175.04L38.1088 174.16C38.1888 174.293 38.3188 174.437 38.4988 174.59C38.6788 174.737 38.8922 174.86 39.1388 174.96C39.3922 175.06 39.6688 175.11 39.9688 175.11C40.2222 175.11 40.4622 175.077 40.6888 175.01C40.9222 174.937 41.1088 174.827 41.2488 174.68C41.3955 174.533 41.4688 174.343 41.4688 174.11C41.4688 173.863 41.3822 173.673 41.2088 173.54C41.0422 173.4 40.8288 173.297 40.5688 173.23C40.3155 173.157 40.0688 173.09 39.8288 173.03C39.1955 172.903 38.6055 172.707 38.0588 172.44C37.5188 172.173 37.0822 171.83 36.7488 171.41C36.4222 170.983 36.2588 170.47 36.2588 169.87C36.2588 169.21 36.4322 168.64 36.7788 168.16C37.1322 167.68 37.5888 167.31 38.1488 167.05C38.7155 166.79 39.3255 166.66 39.9788 166.66C40.7722 166.66 41.4988 166.827 42.1588 167.16C42.8255 167.487 43.3522 167.95 43.7388 168.55L41.8088 169.69C41.7155 169.53 41.5855 169.383 41.4188 169.25C41.2522 169.11 41.0622 168.997 40.8488 168.91C40.6355 168.817 40.4122 168.763 40.1788 168.75C39.8788 168.737 39.6055 168.763 39.3588 168.83C39.1122 168.897 38.9122 169.01 38.7588 169.17C38.6122 169.33 38.5388 169.543 38.5388 169.81C38.5388 170.063 38.6388 170.253 38.8388 170.38C39.0388 170.5 39.2788 170.593 39.5588 170.66C39.8455 170.727 40.1188 170.8 40.3788 170.88C40.9655 171.073 41.5155 171.31 42.0288 171.59C42.5488 171.87 42.9655 172.213 43.2788 172.62C43.5922 173.027 43.7422 173.513 43.7288 174.08C43.7288 174.727 43.5355 175.293 43.1488 175.78C42.7622 176.26 42.2622 176.627 41.6488 176.88C41.0422 177.133 40.3922 177.233 39.6988 177.18ZM50.8002 169.44H48.8602V177H46.4202V169.44H44.9402V167H46.4202V163.86H48.8602V167H50.8002V169.44ZM56.7738 177.26C55.8538 177.26 55.0138 177.023 54.2538 176.55C53.5005 176.077 52.8972 175.443 52.4438 174.65C51.9972 173.85 51.7738 172.967 51.7738 172C51.7738 171.267 51.9038 170.583 52.1638 169.95C52.4238 169.31 52.7805 168.75 53.2338 168.27C53.6938 167.783 54.2272 167.403 54.8338 167.13C55.4405 166.857 56.0872 166.72 56.7738 166.72C57.6938 166.72 58.5305 166.957 59.2838 167.43C60.0438 167.903 60.6472 168.54 61.0938 169.34C61.5472 170.14 61.7738 171.027 61.7738 172C61.7738 172.727 61.6438 173.407 61.3838 174.04C61.1238 174.673 60.7638 175.233 60.3038 175.72C59.8505 176.2 59.3205 176.577 58.7138 176.85C58.1138 177.123 57.4672 177.26 56.7738 177.26ZM56.7738 174.82C57.2605 174.82 57.6972 174.69 58.0838 174.43C58.4705 174.17 58.7738 173.827 58.9938 173.4C59.2205 172.973 59.3338 172.507 59.3338 172C59.3338 171.48 59.2172 171.007 58.9838 170.58C58.7572 170.147 58.4472 169.803 58.0538 169.55C57.6672 169.29 57.2405 169.16 56.7738 169.16C56.2938 169.16 55.8605 169.29 55.4738 169.55C55.0872 169.81 54.7805 170.157 54.5538 170.59C54.3272 171.023 54.2138 171.493 54.2138 172C54.2138 172.527 54.3305 173.003 54.5638 173.43C54.7972 173.857 55.1072 174.197 55.4938 174.45C55.8872 174.697 56.3138 174.82 56.7738 174.82ZM63.3309 177V167H65.7709V167.89C66.1109 167.53 66.5175 167.247 66.9909 167.04C67.4642 166.827 67.9742 166.72 68.5209 166.72C69.2142 166.72 69.8509 166.883 70.4309 167.21C71.0175 167.537 71.4842 167.973 71.8309 168.52C72.1842 167.973 72.6509 167.537 73.2309 167.21C73.8109 166.883 74.4475 166.72 75.1409 166.72C75.8742 166.72 76.5375 166.9 77.1309 167.26C77.7309 167.613 78.2075 168.09 78.5609 168.69C78.9209 169.283 79.1009 169.947 79.1009 170.68V177H76.6609V171.33C76.6609 170.943 76.5642 170.59 76.3709 170.27C76.1842 169.943 75.9309 169.683 75.6109 169.49C75.2975 169.29 74.9442 169.19 74.5509 169.19C74.1575 169.19 73.8009 169.287 73.4809 169.48C73.1675 169.667 72.9142 169.92 72.7209 170.24C72.5275 170.56 72.4309 170.923 72.4309 171.33V177H69.9909V171.33C69.9909 170.923 69.8975 170.56 69.7109 170.24C69.5242 169.92 69.2709 169.667 68.9509 169.48C68.6309 169.287 68.2742 169.19 67.8809 169.19C67.4942 169.19 67.1409 169.29 66.8209 169.49C66.5009 169.683 66.2442 169.943 66.0509 170.27C65.8642 170.59 65.7709 170.943 65.7709 171.33V177H63.3309ZM90.949 177.26C90.1757 177.26 89.4323 177.14 88.719 176.9C88.0123 176.653 87.3923 176.303 86.859 175.85C86.3257 175.39 85.9423 174.84 85.709 174.2L87.999 173.36C88.0923 173.627 88.2823 173.87 88.569 174.09C88.8557 174.31 89.2057 174.487 89.619 174.62C90.0323 174.753 90.4757 174.82 90.949 174.82C91.4357 174.82 91.889 174.747 92.309 174.6C92.7357 174.447 93.079 174.237 93.339 173.97C93.599 173.697 93.729 173.38 93.729 173.02C93.729 172.653 93.5923 172.353 93.319 172.12C93.0457 171.88 92.6957 171.69 92.269 171.55C91.8423 171.41 91.4023 171.303 90.949 171.23C89.9557 171.077 89.0657 170.84 88.279 170.52C87.4923 170.2 86.869 169.757 86.409 169.19C85.9557 168.623 85.729 167.89 85.729 166.99C85.729 166.143 85.9723 165.403 86.459 164.77C86.9457 164.137 87.5857 163.643 88.379 163.29C89.1723 162.937 90.029 162.76 90.949 162.76C91.7157 162.76 92.4557 162.88 93.169 163.12C93.8823 163.36 94.5057 163.71 95.039 164.17C95.579 164.63 95.9657 165.183 96.199 165.83L93.899 166.66C93.8057 166.393 93.6157 166.15 93.329 165.93C93.0423 165.71 92.6923 165.537 92.279 165.41C91.8657 165.277 91.4223 165.21 90.949 165.21C90.4757 165.203 90.0257 165.28 89.599 165.44C89.179 165.593 88.8357 165.803 88.569 166.07C88.3023 166.337 88.169 166.643 88.169 166.99C88.169 167.437 88.2923 167.773 88.539 168C88.7923 168.227 89.129 168.393 89.549 168.5C89.969 168.6 90.4357 168.693 90.949 168.78C91.8823 168.927 92.7457 169.173 93.539 169.52C94.3323 169.867 94.969 170.33 95.449 170.91C95.929 171.483 96.169 172.187 96.169 173.02C96.169 173.867 95.929 174.61 95.449 175.25C94.969 175.883 94.3323 176.377 93.539 176.73C92.7457 177.083 91.8823 177.26 90.949 177.26ZM102.477 177.26C101.557 177.26 100.717 177.023 99.957 176.55C99.2036 176.077 98.6003 175.443 98.147 174.65C97.7003 173.85 97.477 172.967 97.477 172C97.477 171.267 97.607 170.583 97.867 169.95C98.127 169.31 98.4836 168.75 98.937 168.27C99.397 167.783 99.9303 167.403 100.537 167.13C101.144 166.857 101.79 166.72 102.477 166.72C103.397 166.72 104.234 166.957 104.987 167.43C105.747 167.903 106.35 168.54 106.797 169.34C107.25 170.14 107.477 171.027 107.477 172C107.477 172.727 107.347 173.407 107.087 174.04C106.827 174.673 106.467 175.233 106.007 175.72C105.554 176.2 105.024 176.577 104.417 176.85C103.817 177.123 103.17 177.26 102.477 177.26ZM102.477 174.82C102.964 174.82 103.4 174.69 103.787 174.43C104.174 174.17 104.477 173.827 104.697 173.4C104.924 172.973 105.037 172.507 105.037 172C105.037 171.48 104.92 171.007 104.687 170.58C104.46 170.147 104.15 169.803 103.757 169.55C103.37 169.29 102.944 169.16 102.477 169.16C101.997 169.16 101.564 169.29 101.177 169.55C100.79 169.81 100.484 170.157 100.257 170.59C100.03 171.023 99.917 171.493 99.917 172C99.917 172.527 100.034 173.003 100.267 173.43C100.5 173.857 100.81 174.197 101.197 174.45C101.59 174.697 102.017 174.82 102.477 174.82ZM112.098 164.9V167H114.828V169.44H112.098V177H109.658V169.44H108.568V167H109.658V164.9C109.658 164.327 109.798 163.803 110.078 163.33C110.365 162.85 110.748 162.47 111.228 162.19C111.708 161.903 112.238 161.76 112.818 161.76C113.238 161.76 113.655 161.847 114.068 162.02C114.482 162.193 114.848 162.46 115.168 162.82L113.408 164.54C113.348 164.427 113.262 164.343 113.148 164.29C113.042 164.23 112.932 164.2 112.818 164.2C112.625 164.2 112.455 164.27 112.308 164.41C112.168 164.543 112.098 164.707 112.098 164.9ZM122.167 169.44H120.227V177H117.787V169.44H116.307V167H117.787V163.86H120.227V167H122.167V169.44ZM129.135 177H126.715L123.375 167H125.765L127.935 173.47L130.095 167H132.505L134.665 173.47L136.835 167H139.225L135.885 177H133.465L131.295 170.5L129.135 177ZM147.863 167H150.303V177H147.863L147.753 175.76C147.48 176.207 147.116 176.57 146.663 176.85C146.216 177.123 145.686 177.26 145.073 177.26C144.333 177.26 143.64 177.12 142.993 176.84C142.346 176.56 141.776 176.173 141.283 175.68C140.796 175.187 140.413 174.617 140.133 173.97C139.86 173.323 139.723 172.63 139.723 171.89C139.723 171.177 139.853 170.507 140.113 169.88C140.38 169.253 140.75 168.703 141.223 168.23C141.696 167.757 142.243 167.387 142.863 167.12C143.483 166.853 144.15 166.72 144.863 166.72C145.523 166.72 146.113 166.867 146.633 167.16C147.16 167.453 147.606 167.827 147.973 168.28L147.863 167ZM145.013 174.91C145.533 174.91 145.993 174.78 146.393 174.52C146.793 174.26 147.106 173.91 147.333 173.47C147.56 173.023 147.673 172.533 147.673 172C147.673 171.46 147.56 170.97 147.333 170.53C147.106 170.083 146.79 169.73 146.383 169.47C145.983 169.21 145.526 169.08 145.013 169.08C144.5 169.08 144.03 169.213 143.603 169.48C143.183 169.74 142.846 170.09 142.593 170.53C142.346 170.97 142.223 171.46 142.223 172C142.223 172.54 142.35 173.03 142.603 173.47C142.856 173.91 143.193 174.26 143.613 174.52C144.04 174.78 144.506 174.91 145.013 174.91ZM152.306 177L152.296 167H154.736L154.746 167.89C155.086 167.53 155.492 167.247 155.966 167.04C156.439 166.827 156.949 166.72 157.496 166.72C157.862 166.72 158.229 166.773 158.596 166.88L157.636 169.34C157.382 169.24 157.129 169.19 156.876 169.19C156.482 169.19 156.122 169.287 155.796 169.48C155.476 169.667 155.219 169.923 155.026 170.25C154.839 170.57 154.746 170.927 154.746 171.32V177H152.306ZM163.649 177.26C162.729 177.26 161.889 177.023 161.129 176.55C160.375 176.077 159.772 175.44 159.319 174.64C158.872 173.84 158.649 172.957 158.649 171.99C158.649 171.263 158.779 170.583 159.039 169.95C159.299 169.31 159.655 168.75 160.109 168.27C160.569 167.783 161.102 167.403 161.709 167.13C162.315 166.857 162.962 166.72 163.649 166.72C164.429 166.72 165.142 166.887 165.789 167.22C166.442 167.547 166.995 167.997 167.449 168.57C167.902 169.143 168.232 169.797 168.439 170.53C168.645 171.263 168.692 172.03 168.579 172.83H161.269C161.362 173.203 161.515 173.54 161.729 173.84C161.942 174.133 162.212 174.37 162.539 174.55C162.865 174.723 163.235 174.813 163.649 174.82C164.075 174.827 164.462 174.727 164.809 174.52C165.162 174.307 165.455 174.02 165.689 173.66L168.179 174.24C167.772 175.127 167.165 175.853 166.359 176.42C165.552 176.98 164.649 177.26 163.649 177.26ZM161.189 171H166.109C166.035 170.6 165.879 170.24 165.639 169.92C165.405 169.593 165.115 169.333 164.769 169.14C164.422 168.947 164.049 168.85 163.649 168.85C163.249 168.85 162.879 168.947 162.539 169.14C162.199 169.327 161.909 169.583 161.669 169.91C161.435 170.23 161.275 170.593 161.189 171ZM175.245 177V163H180.345C181.085 163 181.752 163.153 182.345 163.46C182.945 163.76 183.418 164.193 183.765 164.76C184.118 165.32 184.295 165.983 184.295 166.75C184.295 167.09 184.245 167.433 184.145 167.78C184.045 168.127 183.892 168.44 183.685 168.72C183.478 168.993 183.212 169.197 182.885 169.33C183.318 169.437 183.672 169.63 183.945 169.91C184.218 170.19 184.432 170.52 184.585 170.9C184.738 171.273 184.842 171.657 184.895 172.05C184.955 172.437 184.985 172.797 184.985 173.13C184.985 173.87 184.802 174.53 184.435 175.11C184.068 175.69 183.575 176.15 182.955 176.49C182.342 176.83 181.662 177 180.915 177H175.245ZM177.685 174.91H180.665C181.065 174.91 181.425 174.813 181.745 174.62C182.065 174.427 182.322 174.16 182.515 173.82C182.708 173.48 182.805 173.093 182.805 172.66C182.805 172.287 182.708 171.933 182.515 171.6C182.322 171.267 182.065 170.997 181.745 170.79C181.425 170.583 181.065 170.48 180.665 170.48H177.685V174.91ZM177.685 168.42H180.065C180.558 168.42 180.978 168.267 181.325 167.96C181.678 167.653 181.855 167.247 181.855 166.74C181.855 166.2 181.678 165.793 181.325 165.52C180.978 165.24 180.558 165.1 180.065 165.1H177.685V168.42ZM186.193 173.3V167H188.633V172.66C188.633 173.053 188.729 173.413 188.923 173.74C189.116 174.06 189.373 174.317 189.693 174.51C190.019 174.697 190.376 174.79 190.763 174.79C191.163 174.79 191.523 174.697 191.843 174.51C192.163 174.317 192.419 174.06 192.613 173.74C192.806 173.413 192.903 173.053 192.903 172.66V167H195.343L195.353 177H192.913L192.903 176.09C192.556 176.45 192.146 176.737 191.673 176.95C191.199 177.157 190.693 177.26 190.153 177.26C189.426 177.26 188.763 177.083 188.163 176.73C187.563 176.37 187.083 175.893 186.723 175.3C186.369 174.7 186.193 174.033 186.193 173.3ZM197.354 167H199.794V177H197.354V167ZM198.594 165.71C198.234 165.71 197.931 165.593 197.684 165.36C197.438 165.12 197.314 164.82 197.314 164.46C197.314 164.107 197.438 163.81 197.684 163.57C197.931 163.33 198.231 163.21 198.584 163.21C198.938 163.21 199.234 163.33 199.474 163.57C199.721 163.81 199.844 164.107 199.844 164.46C199.844 164.82 199.724 165.12 199.484 165.36C199.244 165.593 198.948 165.71 198.594 165.71ZM202.237 177V162H204.677V177H202.237ZM214.485 162H216.925V177H214.485V175.75C214.165 176.197 213.761 176.56 213.275 176.84C212.788 177.12 212.225 177.26 211.585 177.26C210.858 177.26 210.178 177.123 209.545 176.85C208.911 176.577 208.351 176.2 207.865 175.72C207.385 175.233 207.008 174.673 206.735 174.04C206.461 173.407 206.325 172.727 206.325 172C206.325 171.273 206.461 170.593 206.735 169.96C207.008 169.327 207.385 168.77 207.865 168.29C208.351 167.803 208.911 167.423 209.545 167.15C210.178 166.877 210.858 166.74 211.585 166.74C212.225 166.74 212.788 166.88 213.275 167.16C213.761 167.433 214.165 167.797 214.485 168.25V162ZM211.615 174.91C212.135 174.91 212.595 174.78 212.995 174.52C213.395 174.26 213.708 173.91 213.935 173.47C214.161 173.023 214.275 172.533 214.275 172C214.275 171.46 214.161 170.97 213.935 170.53C213.708 170.083 213.391 169.73 212.985 169.47C212.585 169.21 212.128 169.08 211.615 169.08C211.101 169.08 210.631 169.213 210.205 169.48C209.785 169.74 209.448 170.09 209.195 170.53C208.948 170.97 208.825 171.46 208.825 172C208.825 172.54 208.951 173.03 209.205 173.47C209.458 173.91 209.795 174.26 210.215 174.52C210.641 174.78 211.108 174.91 211.615 174.91ZM223.571 177.26C222.651 177.26 221.811 177.023 221.051 176.55C220.297 176.077 219.694 175.44 219.241 174.64C218.794 173.84 218.571 172.957 218.571 171.99C218.571 171.263 218.701 170.583 218.961 169.95C219.221 169.31 219.577 168.75 220.031 168.27C220.491 167.783 221.024 167.403 221.631 167.13C222.237 166.857 222.884 166.72 223.571 166.72C224.351 166.72 225.064 166.887 225.711 167.22C226.364 167.547 226.917 167.997 227.371 168.57C227.824 169.143 228.154 169.797 228.361 170.53C228.567 171.263 228.614 172.03 228.501 172.83H221.191C221.284 173.203 221.437 173.54 221.651 173.84C221.864 174.133 222.134 174.37 222.461 174.55C222.787 174.723 223.157 174.813 223.571 174.82C223.997 174.827 224.384 174.727 224.731 174.52C225.084 174.307 225.377 174.02 225.611 173.66L228.101 174.24C227.694 175.127 227.087 175.853 226.281 176.42C225.474 176.98 224.571 177.26 223.571 177.26ZM221.111 171H226.031C225.957 170.6 225.801 170.24 225.561 169.92C225.327 169.593 225.037 169.333 224.691 169.14C224.344 168.947 223.971 168.85 223.571 168.85C223.171 168.85 222.801 168.947 222.461 169.14C222.121 169.327 221.831 169.583 221.591 169.91C221.357 170.23 221.197 170.593 221.111 171ZM230.138 177L230.128 167H232.568L232.578 167.89C232.918 167.53 233.324 167.247 233.798 167.04C234.271 166.827 234.781 166.72 235.328 166.72C235.694 166.72 236.061 166.773 236.428 166.88L235.468 169.34C235.214 169.24 234.961 169.19 234.708 169.19C234.314 169.19 233.954 169.287 233.628 169.48C233.308 169.667 233.051 169.923 232.858 170.25C232.671 170.57 232.578 170.927 232.578 171.32V177H230.138ZM240.461 177.18C239.941 177.147 239.437 177.043 238.951 176.87C238.471 176.69 238.044 176.447 237.671 176.14C237.297 175.833 237.011 175.467 236.811 175.04L238.871 174.16C238.951 174.293 239.081 174.437 239.261 174.59C239.441 174.737 239.654 174.86 239.901 174.96C240.154 175.06 240.431 175.11 240.731 175.11C240.984 175.11 241.224 175.077 241.451 175.01C241.684 174.937 241.871 174.827 242.011 174.68C242.157 174.533 242.231 174.343 242.231 174.11C242.231 173.863 242.144 173.673 241.971 173.54C241.804 173.4 241.591 173.297 241.331 173.23C241.077 173.157 240.831 173.09 240.591 173.03C239.957 172.903 239.367 172.707 238.821 172.44C238.281 172.173 237.844 171.83 237.511 171.41C237.184 170.983 237.021 170.47 237.021 169.87C237.021 169.21 237.194 168.64 237.541 168.16C237.894 167.68 238.351 167.31 238.911 167.05C239.477 166.79 240.087 166.66 240.741 166.66C241.534 166.66 242.261 166.827 242.921 167.16C243.587 167.487 244.114 167.95 244.501 168.55L242.571 169.69C242.477 169.53 242.347 169.383 242.181 169.25C242.014 169.11 241.824 168.997 241.611 168.91C241.397 168.817 241.174 168.763 240.941 168.75C240.641 168.737 240.367 168.763 240.121 168.83C239.874 168.897 239.674 169.01 239.521 169.17C239.374 169.33 239.301 169.543 239.301 169.81C239.301 170.063 239.401 170.253 239.601 170.38C239.801 170.5 240.041 170.593 240.321 170.66C240.607 170.727 240.881 170.8 241.141 170.88C241.727 171.073 242.277 171.31 242.791 171.59C243.311 171.87 243.727 172.213 244.041 172.62C244.354 173.027 244.504 173.513 244.491 174.08C244.491 174.727 244.297 175.293 243.911 175.78C243.524 176.26 243.024 176.627 242.411 176.88C241.804 177.133 241.154 177.233 240.461 177.18Z" fill="#F1F1F1"/>
</svg>
