<svg width="513" height="256" viewBox="0 0 513 256" fill="none" xmlns="http://www.w3.org/2000/svg">
<rect x="1" width="512" height="256" fill="#FA1112"/>
<path d="M41.4319 115L54.4879 47.8H64.1839L80.5519 90.856L96.9199 47.8H106.616L119.672 115H107.72L99.6559 73.432L84.5359 113.464H76.5199L61.3999 73.432L53.3839 115H41.4319ZM148.552 47.8H162.04L186.472 115H174.04L169.72 103.096H140.92L136.6 115H124.168L148.552 47.8ZM145.192 91.384H165.4L155.272 63.688L145.192 91.384ZM194.526 115V47.8H220.302C223.95 47.8 227.246 48.712 230.19 50.536C233.134 52.36 235.47 54.808 237.198 57.88C238.926 60.92 239.79 64.296 239.79 68.008C239.79 71.048 239.23 73.848 238.11 76.408C237.022 78.936 235.486 81.128 233.502 82.984C231.55 84.84 229.294 86.248 226.734 87.208L242.814 115H229.326L213.774 88.264H206.238V115H194.526ZM206.238 76.552H218.958C220.622 76.552 222.142 76.136 223.518 75.304C224.894 74.472 225.998 73.352 226.83 71.944C227.662 70.536 228.078 68.968 228.078 67.24C228.078 65.48 227.662 63.896 226.83 62.488C225.998 61.08 224.894 59.96 223.518 59.128C222.142 58.296 220.622 57.88 218.958 57.88H206.238V76.552ZM301.468 47.8V59.512H280.924V115H269.212V59.512H248.668V47.8H301.468ZM311.057 115V47.8H322.769V103.288H350.753V115H311.057ZM403.089 116.248C399.153 116.248 395.633 115.288 392.529 113.368C389.425 111.448 386.961 108.92 385.137 105.784C383.345 102.616 382.449 99.208 382.449 95.56C382.449 93.512 382.641 91.72 383.025 90.184C383.409 88.648 384.065 87.16 384.993 85.72C385.921 84.248 387.185 82.648 388.785 80.92C390.385 79.16 392.401 77.064 394.833 74.632C393.521 73.288 392.401 72.088 391.473 71.032C390.577 69.976 389.857 68.952 389.313 67.96C388.769 66.936 388.369 65.896 388.113 64.84C387.889 63.784 387.777 62.584 387.777 61.24C387.777 58.296 388.481 55.672 389.889 53.368C391.297 51.032 393.169 49.192 395.505 47.848C397.841 46.504 400.369 45.832 403.089 45.832C405.937 45.832 408.513 46.52 410.817 47.896C413.153 49.24 415.009 51.08 416.385 53.416C417.793 55.752 418.497 58.36 418.497 61.24C418.497 62.616 418.369 63.848 418.113 64.936C417.889 66.024 417.489 67.064 416.913 68.056C416.369 69.048 415.633 70.072 414.705 71.128C413.809 72.184 412.705 73.352 411.393 74.632L424.065 87.304L436.161 75.16V91.72L432.273 95.608L443.457 106.744L435.153 115L424.065 103.912C421.601 106.376 419.489 108.408 417.729 110.008C415.969 111.608 414.353 112.872 412.881 113.8C411.441 114.696 409.953 115.32 408.417 115.672C406.913 116.056 405.137 116.248 403.089 116.248ZM403.089 104.536C404.209 104.536 405.185 104.408 406.017 104.152C406.849 103.864 407.681 103.384 408.513 102.712C409.345 102.008 410.321 101.08 411.441 99.928C412.593 98.776 414.033 97.336 415.761 95.608L403.089 82.936C401.297 84.76 399.809 86.248 398.625 87.4C397.473 88.552 396.577 89.544 395.937 90.376C395.297 91.176 394.833 91.976 394.545 92.776C394.289 93.576 394.161 94.52 394.161 95.608C394.161 97.336 394.577 98.872 395.409 100.216C396.273 101.56 397.377 102.616 398.721 103.384C400.097 104.152 401.553 104.536 403.089 104.536ZM403.089 68.056C404.529 66.68 405.601 65.64 406.305 64.936C407.041 64.232 407.537 63.624 407.793 63.112C408.081 62.568 408.225 61.864 408.225 61C408.225 59.4 407.681 58.152 406.593 57.256C405.505 56.36 404.337 55.912 403.089 55.912C401.745 55.912 400.561 56.408 399.537 57.4C398.545 58.392 398.049 59.592 398.049 61C398.049 61.864 398.193 62.584 398.481 63.16C398.801 63.736 399.329 64.376 400.065 65.08C400.801 65.784 401.809 66.776 403.089 68.056Z" fill="#F1F1F1"/>
<path d="M138.786 207.248C134.242 207.248 129.97 206.352 125.97 204.56C121.97 202.736 118.45 200.224 115.41 197.024C112.402 193.824 110.034 190.128 108.306 185.936C106.61 181.712 105.762 177.2 105.762 172.4C105.762 167.568 106.61 163.056 108.306 158.864C110.034 154.64 112.402 150.944 115.41 147.776C118.45 144.576 121.97 142.08 125.97 140.288C129.97 138.464 134.242 137.552 138.786 137.552C144.226 137.552 149.234 138.816 153.81 141.344C158.386 143.84 162.178 147.184 165.186 151.376L154.722 156.992C152.834 154.656 150.482 152.784 147.666 151.376C144.882 149.968 141.922 149.264 138.786 149.264C135.842 149.264 133.074 149.872 130.482 151.088C127.89 152.272 125.618 153.936 123.666 156.08C121.714 158.192 120.194 160.656 119.106 163.472C118.018 166.256 117.474 169.232 117.474 172.4C117.474 175.6 118.018 178.592 119.106 181.376C120.226 184.16 121.762 186.624 123.714 188.768C125.666 190.88 127.922 192.544 130.482 193.76C133.074 194.944 135.842 195.536 138.786 195.536C141.986 195.536 144.962 194.832 147.714 193.424C150.498 191.984 152.834 190.096 154.722 187.76L165.186 193.424C162.178 197.584 158.386 200.928 153.81 203.456C149.234 205.984 144.226 207.248 138.786 207.248ZM192.833 207.248C188.417 207.248 184.385 206.112 180.737 203.84C177.121 201.568 174.225 198.528 172.049 194.72C169.905 190.88 168.833 186.64 168.833 182C168.833 178.48 169.457 175.2 170.705 172.16C171.953 169.088 173.665 166.4 175.841 164.096C178.049 161.76 180.609 159.936 183.521 158.624C186.433 157.312 189.537 156.656 192.833 156.656C197.249 156.656 201.265 157.792 204.881 160.064C208.529 162.336 211.425 165.392 213.569 169.232C215.745 173.072 216.833 177.328 216.833 182C216.833 185.488 216.209 188.752 214.961 191.792C213.713 194.832 211.985 197.52 209.777 199.856C207.601 202.16 205.057 203.968 202.145 205.28C199.265 206.592 196.161 207.248 192.833 207.248ZM192.833 195.536C195.169 195.536 197.265 194.912 199.121 193.664C200.977 192.416 202.433 190.768 203.489 188.72C204.577 186.672 205.121 184.432 205.121 182C205.121 179.504 204.561 177.232 203.441 175.184C202.353 173.104 200.865 171.456 198.977 170.24C197.121 168.992 195.073 168.368 192.833 168.368C190.529 168.368 188.449 168.992 186.593 170.24C184.737 171.488 183.265 173.152 182.177 175.232C181.089 177.312 180.545 179.568 180.545 182C180.545 184.528 181.105 186.816 182.225 188.864C183.345 190.912 184.833 192.544 186.689 193.76C188.577 194.944 190.625 195.536 192.833 195.536ZM228.574 207.248C226.91 207.248 225.486 206.672 224.302 205.52C223.15 204.336 222.574 202.896 222.574 201.2C222.574 199.568 223.15 198.16 224.302 196.976C225.486 195.792 226.91 195.2 228.574 195.2C230.238 195.2 231.662 195.792 232.846 196.976C234.03 198.16 234.622 199.568 234.622 201.2C234.622 202.896 234.03 204.336 232.846 205.52C231.662 206.672 230.238 207.248 228.574 207.248ZM318.317 206H303.053L284.189 179.648L280.925 183.536V206H269.213V138.8H280.925V165.344L303.149 138.8H318.461L291.821 170.48L318.317 206ZM353.286 207.248C348.614 207.248 344.262 206.336 340.23 204.512C336.23 202.688 332.742 200.176 329.766 196.976C326.79 193.744 324.454 190.032 322.758 185.84C321.094 181.616 320.262 177.104 320.262 172.304C320.262 167.248 321.158 162.608 322.95 158.384C324.774 154.16 327.254 150.496 330.39 147.392C333.526 144.288 337.078 141.888 341.046 140.192C345.046 138.496 349.206 137.648 353.526 137.648C358.358 137.648 363.046 138.784 367.59 141.056C372.166 143.296 376.198 146.768 379.686 151.472L369.222 157.088C367.078 154.464 364.614 152.512 361.83 151.232C359.078 149.92 356.262 149.264 353.382 149.264C350.566 149.264 347.862 149.84 345.27 150.992C342.71 152.144 340.422 153.776 338.406 155.888C336.422 157.968 334.854 160.432 333.702 163.28C332.55 166.096 331.974 169.184 331.974 172.544C331.974 175.712 332.534 178.704 333.654 181.52C334.774 184.304 336.31 186.752 338.262 188.864C340.246 190.944 342.534 192.576 345.126 193.76C347.718 194.944 350.502 195.536 353.478 195.536C355.462 195.536 357.398 195.232 359.286 194.624C361.206 193.984 362.998 193.072 364.662 191.888C366.358 190.704 367.862 189.264 369.174 187.568C370.518 185.872 371.638 183.952 372.534 181.808H360.294V171.584H386.31C386.438 176.48 385.67 181.072 384.006 185.36C382.342 189.648 379.99 193.44 376.95 196.736C373.91 200.032 370.374 202.608 366.342 204.464C362.31 206.32 357.958 207.248 353.286 207.248Z" fill="#F1F1F1"/>
<line x1="0.9899" y1="124.5" x2="512.99" y2="122.431" stroke="#F1F1F1" stroke-width="5"/>
<path d="M269.216 159V91.8H280.928V159H269.216Z" fill="#F1F1F1"/>
</svg>
